<?xml version="1.0" encoding="utf-8" ?>
<svg baseProfile="tiny" height="100%" version="1.2" width="100%" xmlns="http://www.w3.org/2000/svg" xmlns:ev="http://www.w3.org/2001/xml-events" xmlns:xlink="http://www.w3.org/1999/xlink"><defs /><path d="M 71.00313725490196,12.0 L 71.0,11.996862745098039 L 70.0,11.996862745098039 L 69.99686274509804,12.0 L 70.0,12.003137254901961 L 71.0,12.003137254901961 L 71.00313725490196,12.0 Z" fill="none" stroke="black" stroke-width="2" /><path d="M 82.00313725490196,12.0 L 82.0,11.996862745098039 L 81.99686274509804,12.0 L 82.0,12.003137254901961 L 82.00313725490196,12.0 Z" fill="none" stroke="black" stroke-width="2" /><path d="M 289.00313725490196,13.0 L 289.0,12.996862745098039 L 288.99686274509804,13.0 L 289.0,13.003137254901961 L 289.00313725490196,13.0 Z" fill="none" stroke="black" stroke-width="2" /><path d="M 58.00313725490196,14.0 L 58.0,13.996862745098039 L 57.99686274509804,14.0 L 58.0,14.003137254901961 L 58.00313725490196,14.0 Z" fill="none" stroke="black" stroke-width="2" /><path d="M 285.00313725490196,14.0 L 285.0,13.996862745098039 L 284.99686274509804,14.0 L 285.0,14.003137254901961 L 285.00313725490196,14.0 Z" fill="none" stroke="black" stroke-width="2" /><path d="M 97.00313725490196,15.0 L 97.0,14.996862745098039 L 96.99686274509804,15.0 L 97.0,15.003137254901961 L 97.00313725490196,15.0 Z" fill="none" stroke="black" stroke-width="2" /><path d="M 100.00313725490196,16.0 L 100.0,15.996862745098039 L 99.99686274509804,16.0 L 100.0,16.00313725490196 L 100.00313725490196,16.0 Z" fill="none" stroke="black" stroke-width="2" /><path d="M 105.00313725490196,18.0 L 105.0,17.99686274509804 L 104.99686274509804,18.0 L 105.0,18.00313725490196 L 105.00313725490196,18.0 Z" fill="none" stroke="black" stroke-width="2" /><path d="M 111.00313725490196,21.0 L 111.0,20.99686274509804 L 110.99686274509804,21.0 L 111.0,21.00313725490196 L 111.00313725490196,21.0 Z" fill="none" stroke="black" stroke-width="2" /><path d="M 116.00313725490196,24.0 L 116.0,23.99686274509804 L 115.99686274509804,24.0 L 116.0,24.00313725490196 L 116.00313725490196,24.0 Z" fill="none" stroke="black" stroke-width="2" /><path d="M 64.00313725490196,25.0 L 64.0,24.99686274509804 L 63.99686274509804,25.0 L 64.0,25.00313725490196 L 64.00313725490196,25.0 Z" fill="none" stroke="black" stroke-width="2" /><path d="M 88.00313725490196,25.0 L 88.0,24.99686274509804 L 87.99686274509804,25.0 L 88.0,25.00313725490196 L 88.00313725490196,25.0 Z" fill="none" stroke="black" stroke-width="2" /><path d="M 92.00313725490196,26.0 L 92.0,25.99686274509804 L 91.99686274509804,26.0 L 92.0,26.00313725490196 L 92.00313725490196,26.0 Z" fill="none" stroke="black" stroke-width="2" /><path d="M 54.00313725490196,28.0 L 54.0,27.99686274509804 L 53.99686274509804,28.0 L 54.0,28.00313725490196 L 54.00313725490196,28.0 Z" fill="none" stroke="black" stroke-width="2" /><path d="M 98.00313725490196,28.0 L 98.0,27.99686274509804 L 97.99686274509804,28.0 L 98.0,28.00313725490196 L 98.00313725490196,28.0 Z" fill="none" stroke="black" stroke-width="2" /><path d="M 256.00313725490196,29.0 L 256.0,28.99686274509804 L 255.99686274509804,29.0 L 256.0,29.00313725490196 L 256.00313725490196,29.0 Z" fill="none" stroke="black" stroke-width="2" /><path d="M 106.00313725490196,32.0 L 106.0,31.99686274509804 L 105.99686274509804,32.0 L 106.0,32.00313725490196 L 106.00313725490196,32.0 Z" fill="none" stroke="black" stroke-width="2" /><path d="M 249.00313725490196,35.0 L 249.0,34.99686274509804 L 248.99686274509804,35.0 L 249.0,35.00313725490196 L 249.00313725490196,35.0 Z" fill="none" stroke="black" stroke-width="2" /><path d="M 131.00313725490196,36.0 L 131.0,35.99686274509804 L 130.99686274509804,36.0 L 131.0,36.00313725490196 L 131.00313725490196,36.0 Z" fill="none" stroke="black" stroke-width="2" /><path d="M 189.00313725490196,489.0 L 189.00313725490196,488.0 L 189.00313725490196,487.0 L 189.00313725490196,486.0 L 189.00313725490196,485.0 L 189.00313725490196,484.0 L 189.00313725490196,483.0 L 189.00313725490196,482.0 L 189.00313725490196,481.0 L 189.00313725490196,480.0 L 189.00313725490196,479.0 L 189.00313725490196,478.0 L 189.00313725490196,477.0 L 189.00313725490196,476.0 L 189.00313725490196,475.0 L 189.00313725490196,474.0 L 189.00313725490196,473.0 L 189.00313725490196,472.0 L 189.00313725490196,471.0 L 189.00313725490196,470.0 L 189.00313725490196,469.0 L 189.00313725490196,468.0 L 189.00313725490196,467.0 L 189.00313725490196,466.0 L 189.00313725490196,465.0 L 189.00313725490196,464.0 L 189.00313725490196,463.0 L 189.00313725490196,462.0 L 189.00313725490196,461.0 L 189.00313725490196,460.0 L 189.00313725490196,459.0 L 189.00313725490196,458.0 L 189.00313725490196,457.0 L 189.00313725490196,456.0 L 189.00313725490196,455.0 L 189.00313725490196,454.0 L 189.00313725490196,453.0 L 189.00313725490196,452.0 L 189.00313725490196,451.0 L 189.00313725490196,450.0 L 189.00313725490196,449.0 L 189.00313725490196,448.0 L 189.00313725490196,447.0 L 189.00313725490196,446.0 L 189.00313725490196,445.0 L 189.00313725490196,444.0 L 189.00313725490196,443.0 L 189.00313725490196,442.0 L 189.00313725490196,441.0 L 189.00313725490196,440.0 L 189.00313725490196,439.0 L 189.00313725490196,438.0 L 189.00313725490196,437.0 L 189.00313725490196,436.0 L 189.00313725490196,435.0 L 189.00313725490196,434.0 L 189.00313725490196,433.0 L 189.00313725490196,432.0 L 189.00313725490196,431.0 L 189.00313725490196,430.0 L 189.00313725490196,429.0 L 189.00313725490196,428.0 L 189.00313725490196,427.0 L 189.00313725490196,426.0 L 189.00313725490196,425.0 L 189.00313725490196,424.0 L 189.00313725490196,423.0 L 189.00313725490196,422.0 L 189.00313725490196,421.0 L 189.00313725490196,420.0 L 189.00313725490196,419.0 L 189.00313725490196,418.0 L 189.00313725490196,417.0 L 189.00313725490196,416.0 L 189.00313725490196,415.0 L 189.00313725490196,414.0 L 189.00313725490196,413.0 L 189.00313725490196,412.0 L 189.00313725490196,411.0 L 189.00313725490196,410.0 L 189.00313725490196,409.0 L 189.00313725490196,408.0 L 189.00313725490196,407.0 L 189.00313725490196,406.0 L 189.00313725490196,405.0 L 189.00313725490196,404.0 L 189.00313725490196,403.0 L 189.00313725490196,402.0 L 189.00313725490196,401.0 L 189.00313725490196,400.0 L 189.00313725490196,399.0 L 189.00313725490196,398.0 L 189.00313725490196,397.0 L 189.00313725490196,396.0 L 189.00313725490196,395.0 L 189.00313725490196,394.0 L 189.00313725490196,393.0 L 189.00313725490196,392.0 L 189.00313725490196,391.0 L 189.00313725490196,390.0 L 189.00313725490196,389.0 L 189.00313725490196,388.0 L 189.00313725490196,387.0 L 189.00313725490196,386.0 L 189.00313725490196,385.0 L 189.00313725490196,384.0 L 189.00313725490196,383.0 L 189.00313725490196,382.0 L 189.00313725490196,381.0 L 189.00313725490196,380.0 L 189.00313725490196,379.0 L 189.00313725490196,378.0 L 189.00313725490196,377.0 L 189.00313725490196,376.0 L 189.00313725490196,375.0 L 189.00313725490196,374.0 L 189.00313725490196,373.0 L 189.00313725490196,372.0 L 189.00313725490196,371.0 L 189.00313725490196,370.0 L 189.00313725490196,369.0 L 189.00313725490196,368.0 L 189.00313725490196,367.0 L 189.00313725490196,366.0 L 189.00313725490196,365.0 L 189.00313725490196,364.0 L 189.00313725490196,363.0 L 189.00313725490196,362.0 L 189.00313725490196,361.0 L 189.00313725490196,360.0 L 189.00313725490196,359.0 L 189.00313725490196,358.0 L 189.00313725490196,357.0 L 189.00313725490196,356.0 L 189.00313725490196,355.0 L 189.00313725490196,354.0 L 189.00313725490196,353.0 L 189.00313725490196,352.0 L 189.00313725490196,351.0 L 189.00313725490196,350.0 L 189.00313725490196,349.0 L 189.00313725490196,348.0 L 189.00313725490196,347.0 L 189.00313725490196,346.0 L 189.00313725490196,345.0 L 189.00313725490196,344.0 L 189.00313725490196,343.0 L 189.00313725490196,342.0 L 189.00313725490196,341.0 L 189.00313725490196,340.0 L 189.00313725490196,339.0 L 189.00313725490196,338.0 L 189.00313725490196,337.0 L 189.00313725490196,336.0 L 189.00313725490196,335.0 L 189.00313725490196,334.0 L 189.00313725490196,333.0 L 189.00313725490196,332.0 L 189.00313725490196,331.0 L 189.00313725490196,330.0 L 189.00313725490196,329.0 L 189.00313725490196,328.0 L 189.00313725490196,327.0 L 189.00313725490196,326.0 L 189.00313725490196,325.0 L 189.00313725490196,324.0 L 189.00313725490196,323.0 L 189.00313725490196,322.0 L 189.00313725490196,321.0 L 189.00313725490196,320.0 L 189.00313725490196,319.0 L 189.00313725490196,318.0 L 189.00313725490196,317.0 L 189.00313725490196,316.0 L 189.00313725490196,315.0 L 189.00313725490196,314.0 L 189.00313725490196,313.0 L 189.00313725490196,312.0 L 189.00313725490196,311.0 L 189.00313725490196,310.0 L 189.00313725490196,309.0 L 189.00313725490196,308.0 L 189.00313725490196,307.0 L 189.00313725490196,306.0 L 189.00313725490196,305.0 L 189.00313725490196,304.0 L 189.00313725490196,303.0 L 189.00313725490196,302.0 L 189.00313725490196,301.0 L 189.00313725490196,300.0 L 189.00313725490196,299.0 L 189.00313725490196,298.0 L 189.00313725490196,297.0 L 189.00313725490196,296.0 L 189.00313725490196,295.0 L 189.00313725490196,294.0 L 189.00313725490196,293.0 L 189.00313725490196,292.0 L 189.00313725490196,291.0 L 189.00313725490196,290.0 L 189.00313725490196,289.0 L 189.00313725490196,288.0 L 189.00313725490196,287.0 L 189.00313725490196,286.0 L 189.00313725490196,285.0 L 189.00313725490196,284.0 L 189.00313725490196,283.0 L 189.00313725490196,282.0 L 189.00313725490196,281.0 L 189.00313725490196,280.0 L 189.00313725490196,279.0 L 189.00313725490196,278.0 L 189.00313725490196,277.0 L 189.00313725490196,276.0 L 189.00313725490196,275.0 L 189.00313725490196,274.0 L 189.00313725490196,273.0 L 189.00313725490196,272.0 L 189.00313725490196,271.0 L 189.00313725490196,270.0 L 189.00313725490196,269.0 L 189.00313725490196,268.0 L 189.00313725490196,267.0 L 189.00313725490196,266.0 L 189.00313725490196,265.0 L 189.00313725490196,264.0 L 189.00313725490196,263.0 L 189.00313725490196,262.0 L 189.00313725490196,261.0 L 189.00313725490196,260.0 L 189.00313725490196,259.0 L 189.00313725490196,258.0 L 189.00313725490196,257.0 L 189.00313725490196,256.0 L 189.00313725490196,255.0 L 189.00313725490196,254.0 L 189.00313725490196,253.0 L 189.00313725490196,252.0 L 189.00313725490196,251.0 L 189.00313725490196,250.0 L 189.00313725490196,249.0 L 189.00313725490196,248.0 L 189.00313725490196,247.0 L 189.00313725490196,246.0 L 189.00313725490196,245.0 L 189.00313725490196,244.0 L 189.00313725490196,243.0 L 189.00313725490196,242.0 L 189.00313725490196,241.0 L 189.00313725490196,240.0 L 189.00313725490196,239.0 L 189.00313725490196,238.0 L 189.00313725490196,237.0 L 189.00313725490196,236.0 L 189.00313725490196,235.0 L 189.00313725490196,234.0 L 189.00313725490196,233.0 L 189.00313725490196,232.0 L 189.00313725490196,231.0 L 189.00313725490196,230.0 L 189.00313725490196,229.0 L 189.00313725490196,228.0 L 189.00313725490196,227.0 L 189.00313725490196,226.0 L 189.00313725490196,225.0 L 189.00313725490196,224.0 L 189.00313725490196,223.0 L 189.00313725490196,222.0 L 189.00313725490196,221.0 L 189.00313725490196,220.0 L 189.00313725490196,219.0 L 189.00313725490196,218.0 L 189.00313725490196,217.0 L 189.00313725490196,216.0 L 189.00313725490196,215.0 L 189.00313725490196,214.0 L 189.00313725490196,213.0 L 189.00313725490196,212.0 L 189.00313725490196,211.0 L 189.00313725490196,210.0 L 189.00313725490196,209.0 L 189.00313725490196,208.0 L 189.00313725490196,207.0 L 189.00313725490196,206.0 L 189.00313725490196,205.0 L 189.00313725490196,204.0 L 189.00313725490196,203.0 L 189.00313725490196,202.0 L 189.00313725490196,201.0 L 189.00313725490196,200.0 L 189.00313725490196,199.0 L 189.00313725490196,198.0 L 189.00313725490196,197.0 L 189.00313725490196,196.0 L 189.00313725490196,195.0 L 189.00313725490196,194.0 L 189.00313725490196,193.0 L 189.00313725490196,192.0 L 189.00313725490196,191.0 L 189.00313725490196,190.0 L 189.00313725490196,189.0 L 189.00313725490196,188.0 L 189.00313725490196,187.0 L 189.00313725490196,186.0 L 189.00313725490196,185.0 L 189.00313725490196,184.0 L 189.00313725490196,183.0 L 189.00313725490196,182.0 L 189.00313725490196,181.0 L 189.00313725490196,180.0 L 189.00313725490196,179.0 L 189.00313725490196,178.0 L 189.00313725490196,177.0 L 189.00313725490196,176.0 L 189.00313725490196,175.0 L 189.00313725490196,174.0 L 189.00313725490196,173.0 L 189.00313725490196,172.0 L 189.00313725490196,171.0 L 189.00313725490196,170.0 L 189.00313725490196,169.0 L 189.00313725490196,168.0 L 189.00313725490196,167.0 L 189.00313725490196,166.0 L 189.00313725490196,165.0 L 189.00313725490196,164.0 L 189.00313725490196,163.0 L 189.00313725490196,162.0 L 189.00313725490196,161.0 L 189.00313725490196,160.0 L 189.00313725490196,159.0 L 189.00313725490196,158.0 L 189.00313725490196,157.0 L 189.00313725490196,156.0 L 189.00313725490196,155.0 L 189.00313725490196,154.0 L 189.00313725490196,153.0 L 189.00313725490196,152.0 L 189.00313725490196,151.0 L 189.00313725490196,150.0 L 189.00313725490196,149.0 L 189.00313725490196,148.0 L 189.00313725490196,147.0 L 189.00313725490196,146.0 L 189.00313725490196,145.0 L 189.00313725490196,144.0 L 189.00313725490196,143.0 L 189.00313725490196,142.0 L 189.00313725490196,141.0 L 189.00313725490196,140.0 L 189.00313725490196,139.0 L 189.00313725490196,138.0 L 189.00313725490196,137.0 L 189.00313725490196,136.0 L 189.00313725490196,135.0 L 189.00313725490196,134.0 L 189.00313725490196,133.0 L 189.0,132.99686274509804 L 188.00313725490196,132.0 L 188.0,131.99686274509804 L 187.00313725490196,131.0 L 187.0,130.99686274509804 L 186.00313725490196,130.0 L 186.0,129.99686274509804 L 185.00313725490196,129.0 L 185.0,128.99686274509804 L 184.00313725490196,128.0 L 184.0,127.99686274509804 L 183.00313725490196,127.0 L 183.0,126.99686274509804 L 182.00313725490196,126.0 L 182.0,125.99686274509804 L 181.00313725490196,125.0 L 181.0,124.99686274509804 L 180.00313725490196,124.0 L 180.0,123.99686274509804 L 179.00313725490196,123.0 L 179.0,122.99686274509804 L 178.00313725490196,122.0 L 178.0,121.99686274509804 L 177.00313725490196,121.0 L 177.0,120.99686274509804 L 176.00313725490196,120.0 L 176.0,119.99686274509804 L 175.00313725490196,119.0 L 175.0,118.99686274509804 L 174.00313725490196,118.0 L 174.0,117.99686274509804 L 173.00313725490196,117.0 L 173.0,116.99686274509804 L 172.00313725490196,116.0 L 172.0,115.99686274509804 L 171.00313725490196,115.0 L 171.0,114.99686274509804 L 170.00313725490196,114.0 L 170.0,113.99686274509804 L 169.00313725490196,113.0 L 169.0,112.99686274509804 L 168.00313725490196,112.0 L 168.0,111.99686274509804 L 167.00313725490196,111.0 L 167.0,110.99686274509804 L 166.00313725490196,110.0 L 166.0,109.99686274509804 L 165.00313725490196,109.0 L 165.0,108.99686274509804 L 164.00313725490196,108.0 L 164.0,107.99686274509804 L 163.00313725490196,107.0 L 163.0,106.99686274509804 L 162.00313725490196,106.0 L 162.0,105.99686274509804 L 161.00313725490196,105.0 L 161.0,104.99686274509804 L 160.00313725490196,104.0 L 160.0,103.99686274509804 L 159.00313725490196,103.0 L 159.0,102.99686274509804 L 158.00313725490196,102.0 L 158.0,101.99686274509804 L 157.00313725490196,101.0 L 157.0,100.99686274509804 L 156.00313725490196,100.0 L 156.0,99.99686274509804 L 155.00313725490196,99.0 L 155.0,98.99686274509804 L 154.00313725490196,98.0 L 154.0,97.99686274509804 L 153.0,97.99686274509804 L 152.00313725490196,97.0 L 152.0,96.99686274509804 L 151.00313725490196,96.0 L 151.00313725490196,95.0 L 151.0,94.99686274509804 L 150.00313725490196,94.0 L 150.0,93.99686274509804 L 149.0,93.99686274509804 L 148.00313725490196,93.0 L 148.00313725490196,92.0 L 148.0,91.99686274509804 L 147.0,91.99686274509804 L 146.00313725490196,91.0 L 146.00313725490196,90.0 L 146.0,89.99686274509804 L 145.00313725490196,89.0 L 145.0,88.99686274509804 L 144.00313725490196,88.0 L 144.0,87.99686274509804 L 143.00313725490196,87.0 L 143.0,86.99686274509804 L 142.00313725490196,86.0 L 142.0,85.99686274509804 L 141.0,85.99686274509804 L 140.00313725490196,85.0 L 140.00313725490196,84.0 L 140.0,83.99686274509804 L 139.0,83.99686274509804 L 138.00313725490196,83.0 L 138.00313725490196,82.0 L 138.0,81.99686274509804 L 137.00313725490196,81.0 L 137.0,80.99686274509804 L 136.00313725490196,80.0 L 136.0,79.99686274509804 L 135.00313725490196,79.0 L 135.0,78.99686274509804 L 134.0,78.99686274509804 L 133.00313725490196,78.0 L 133.0,77.99686274509804 L 132.00313725490196,77.0 L 132.0,76.99686274509804 L 131.00313725490196,76.0 L 131.0,75.99686274509804 L 130.00313725490196,75.0 L 130.0,74.99686274509804 L 129.00313725490196,74.0 L 129.0,73.99686274509804 L 128.00313725490196,73.0 L 128.0,72.99686274509804 L 127.00313725490196,72.0 L 127.0,71.99686274509804 L 126.00313725490196,71.0 L 126.0,70.99686274509804 L 125.00313725490196,70.0 L 125.0,69.99686274509804 L 124.00313725490196,69.0 L 124.0,68.99686274509804 L 123.00313725490196,68.0 L 123.0,67.99686274509804 L 122.00313725490196,67.0 L 122.0,66.99686274509804 L 121.00313725490196,66.0 L 121.0,65.99686274509804 L 120.00313725490196,65.0 L 120.0,64.99686274509804 L 119.00313725490196,64.0 L 119.0,63.99686274509804 L 118.00313725490196,63.0 L 118.0,62.99686274509804 L 117.00313725490196,62.0 L 117.0,61.99686274509804 L 116.00313725490196,61.0 L 116.0,60.99686274509804 L 115.00313725490196,60.0 L 115.0,59.99686274509804 L 114.00313725490196,59.0 L 114.0,58.99686274509804 L 113.00313725490196,58.0 L 113.0,57.99686274509804 L 112.00313725490196,57.0 L 112.0,56.99686274509804 L 111.00313725490196,56.0 L 111.0,55.99686274509804 L 110.00313725490196,55.0 L 110.0,54.99686274509804 L 109.00313725490196,54.0 L 109.0,53.99686274509804 L 108.00313725490196,53.0 L 108.0,52.99686274509804 L 107.0,52.99686274509804 L 106.00313725490196,52.0 L 106.0,51.99686274509804 L 105.00313725490196,51.0 L 105.0,50.99686274509804 L 104.0,50.99686274509804 L 103.00313725490196,50.0 L 103.0,49.99686274509804 L 102.00313725490196,49.0 L 102.0,48.99686274509804 L 101.00313725490196,48.0 L 101.0,47.99686274509804 L 100.0,47.99686274509804 L 99.00313725490196,47.0 L 99.0,46.99686274509804 L 98.00313725490196,46.0 L 98.0,45.99686274509804 L 97.0,45.99686274509804 L 96.00313725490196,45.0 L 96.0,44.99686274509804 L 95.0,44.99686274509804 L 94.00313725490196,44.0 L 94.0,43.99686274509804 L 93.0,43.99686274509804 L 92.00313725490196,43.0 L 92.0,42.99686274509804 L 91.0,42.99686274509804 L 90.0,42.99686274509804 L 89.00313725490196,42.0 L 89.0,41.99686274509804 L 88.0,41.99686274509804 L 87.0,41.99686274509804 L 86.0,41.99686274509804 L 85.00313725490196,41.0 L 85.0,40.99686274509804 L 84.0,40.99686274509804 L 83.0,40.99686274509804 L 82.0,40.99686274509804 L 81.0,40.99686274509804 L 80.0,40.99686274509804 L 79.00313725490196,40.0 L 79.0,39.99686274509804 L 78.0,39.99686274509804 L 77.0,39.99686274509804 L 76.0,39.99686274509804 L 75.0,39.99686274509804 L 74.0,39.99686274509804 L 73.0,39.99686274509804 L 72.99686274509804,40.0 L 72.0,40.99686274509804 L 71.0,40.99686274509804 L 70.0,40.99686274509804 L 69.0,40.99686274509804 L 68.0,40.99686274509804 L 67.0,40.99686274509804 L 66.0,40.99686274509804 L 65.99686274509804,41.0 L 65.0,41.99686274509804 L 64.0,41.99686274509804 L 63.0,41.99686274509804 L 62.99686274509804,42.0 L 62.0,42.99686274509804 L 61.0,42.99686274509804 L 60.0,42.99686274509804 L 59.99686274509804,43.0 L 59.0,43.99686274509804 L 58.99686274509804,44.0 L 58.0,44.99686274509804 L 57.0,44.99686274509804 L 56.99686274509804,45.0 L 56.0,45.99686274509804 L 55.0,45.99686274509804 L 54.99686274509804,46.0 L 54.0,46.99686274509804 L 53.99686274509804,47.0 L 53.0,47.99686274509804 L 52.0,47.99686274509804 L 51.99686274509804,48.0 L 51.0,48.99686274509804 L 50.99686274509804,49.0 L 50.0,49.99686274509804 L 49.99686274509804,50.0 L 49.0,50.99686274509804 L 48.99686274509804,51.0 L 48.0,51.99686274509804 L 47.99686274509804,52.0 L 47.0,52.99686274509804 L 46.99686274509804,53.0 L 46.99686274509804,54.0 L 46.0,54.99686274509804 L 45.99686274509804,55.0 L 45.99686274509804,56.0 L 45.0,56.99686274509804 L 44.99686274509804,57.0 L 44.99686274509804,58.0 L 44.0,58.99686274509804 L 43.99686274509804,59.0 L 43.99686274509804,60.0 L 43.0,60.99686274509804 L 42.99686274509804,61.0 L 42.99686274509804,62.0 L 42.99686274509804,63.0 L 42.0,63.99686274509804 L 41.99686274509804,64.0 L 41.99686274509804,65.0 L 41.99686274509804,66.0 L 41.99686274509804,67.0 L 41.99686274509804,68.0 L 41.0,68.99686274509804 L 40.99686274509804,69.0 L 40.99686274509804,70.0 L 40.99686274509804,71.0 L 40.99686274509804,72.0 L 40.99686274509804,73.0 L 40.99686274509804,74.0 L 40.99686274509804,75.0 L 40.99686274509804,76.0 L 40.0,76.99686274509804 L 39.99686274509804,77.0 L 39.99686274509804,78.0 L 39.99686274509804,79.0 L 39.99686274509804,80.0 L 39.99686274509804,81.0 L 39.99686274509804,82.0 L 39.99686274509804,83.0 L 39.99686274509804,84.0 L 39.99686274509804,85.0 L 39.99686274509804,86.0 L 39.99686274509804,87.0 L 39.99686274509804,88.0 L 39.99686274509804,89.0 L 39.99686274509804,90.0 L 39.99686274509804,91.0 L 39.99686274509804,92.0 L 39.99686274509804,93.0 L 39.99686274509804,94.0 L 39.99686274509804,95.0 L 39.99686274509804,96.0 L 39.99686274509804,97.0 L 39.99686274509804,98.0 L 39.99686274509804,99.0 L 39.99686274509804,100.0 L 39.99686274509804,101.0 L 39.99686274509804,102.0 L 39.99686274509804,103.0 L 39.99686274509804,104.0 L 39.99686274509804,105.0 L 39.99686274509804,106.0 L 39.99686274509804,107.0 L 39.99686274509804,108.0 L 39.99686274509804,109.0 L 39.99686274509804,110.0 L 39.99686274509804,111.0 L 39.99686274509804,112.0 L 39.99686274509804,113.0 L 39.99686274509804,114.0 L 39.99686274509804,115.0 L 39.99686274509804,116.0 L 39.99686274509804,117.0 L 39.99686274509804,118.0 L 39.99686274509804,119.0 L 39.99686274509804,120.0 L 39.99686274509804,121.0 L 39.99686274509804,122.0 L 39.99686274509804,123.0 L 39.99686274509804,124.0 L 39.99686274509804,125.0 L 39.99686274509804,126.0 L 39.99686274509804,127.0 L 39.99686274509804,128.0 L 39.99686274509804,129.0 L 39.99686274509804,130.0 L 39.99686274509804,131.0 L 39.99686274509804,132.0 L 39.99686274509804,133.0 L 39.99686274509804,134.0 L 39.99686274509804,135.0 L 39.99686274509804,136.0 L 39.99686274509804,137.0 L 39.99686274509804,138.0 L 39.99686274509804,139.0 L 39.99686274509804,140.0 L 39.99686274509804,141.0 L 39.99686274509804,142.0 L 39.99686274509804,143.0 L 39.99686274509804,144.0 L 39.99686274509804,145.0 L 39.99686274509804,146.0 L 39.99686274509804,147.0 L 39.99686274509804,148.0 L 39.99686274509804,149.0 L 39.99686274509804,150.0 L 39.99686274509804,151.0 L 39.99686274509804,152.0 L 39.99686274509804,153.0 L 39.99686274509804,154.0 L 39.99686274509804,155.0 L 39.99686274509804,156.0 L 39.99686274509804,157.0 L 39.99686274509804,158.0 L 39.99686274509804,159.0 L 39.99686274509804,160.0 L 39.99686274509804,161.0 L 39.99686274509804,162.0 L 39.99686274509804,163.0 L 39.99686274509804,164.0 L 39.99686274509804,165.0 L 39.99686274509804,166.0 L 39.99686274509804,167.0 L 39.99686274509804,168.0 L 39.99686274509804,169.0 L 39.99686274509804,170.0 L 39.99686274509804,171.0 L 39.99686274509804,172.0 L 39.99686274509804,173.0 L 39.99686274509804,174.0 L 39.99686274509804,175.0 L 39.99686274509804,176.0 L 39.99686274509804,177.0 L 39.99686274509804,178.0 L 39.99686274509804,179.0 L 39.99686274509804,180.0 L 39.99686274509804,181.0 L 39.99686274509804,182.0 L 39.99686274509804,183.0 L 39.99686274509804,184.0 L 39.99686274509804,185.0 L 39.99686274509804,186.0 L 39.99686274509804,187.0 L 39.99686274509804,188.0 L 39.99686274509804,189.0 L 39.99686274509804,190.0 L 39.99686274509804,191.0 L 39.99686274509804,192.0 L 39.99686274509804,193.0 L 39.99686274509804,194.0 L 39.99686274509804,195.0 L 39.99686274509804,196.0 L 39.99686274509804,197.0 L 39.99686274509804,198.0 L 39.99686274509804,199.0 L 39.99686274509804,200.0 L 39.99686274509804,201.0 L 39.99686274509804,202.0 L 39.99686274509804,203.0 L 39.99686274509804,204.0 L 39.99686274509804,205.0 L 39.99686274509804,206.0 L 39.99686274509804,207.0 L 39.99686274509804,208.0 L 39.99686274509804,209.0 L 39.99686274509804,210.0 L 39.99686274509804,211.0 L 39.99686274509804,212.0 L 39.99686274509804,213.0 L 39.99686274509804,214.0 L 39.99686274509804,215.0 L 39.99686274509804,216.0 L 39.99686274509804,217.0 L 39.99686274509804,218.0 L 39.99686274509804,219.0 L 39.99686274509804,220.0 L 39.99686274509804,221.0 L 39.99686274509804,222.0 L 39.99686274509804,223.0 L 39.99686274509804,224.0 L 39.99686274509804,225.0 L 39.99686274509804,226.0 L 39.99686274509804,227.0 L 39.99686274509804,228.0 L 39.99686274509804,229.0 L 39.99686274509804,230.0 L 39.99686274509804,231.0 L 39.99686274509804,232.0 L 39.99686274509804,233.0 L 39.99686274509804,234.0 L 39.99686274509804,235.0 L 39.99686274509804,236.0 L 39.99686274509804,237.0 L 39.99686274509804,238.0 L 39.99686274509804,239.0 L 39.99686274509804,240.0 L 39.99686274509804,241.0 L 39.99686274509804,242.0 L 39.99686274509804,243.0 L 39.99686274509804,244.0 L 39.99686274509804,245.0 L 39.99686274509804,246.0 L 39.99686274509804,247.0 L 39.99686274509804,248.0 L 39.99686274509804,249.0 L 39.99686274509804,250.0 L 39.99686274509804,251.0 L 39.99686274509804,252.0 L 39.99686274509804,253.0 L 39.99686274509804,254.0 L 39.99686274509804,255.0 L 39.99686274509804,256.0 L 39.99686274509804,257.0 L 39.99686274509804,258.0 L 39.99686274509804,259.0 L 39.99686274509804,260.0 L 39.99686274509804,261.0 L 39.99686274509804,262.0 L 39.99686274509804,263.0 L 39.99686274509804,264.0 L 39.99686274509804,265.0 L 39.99686274509804,266.0 L 39.99686274509804,267.0 L 39.99686274509804,268.0 L 39.99686274509804,269.0 L 39.99686274509804,270.0 L 39.99686274509804,271.0 L 39.99686274509804,272.0 L 39.99686274509804,273.0 L 39.99686274509804,274.0 L 39.99686274509804,275.0 L 39.99686274509804,276.0 L 39.99686274509804,277.0 L 39.99686274509804,278.0 L 39.99686274509804,279.0 L 39.99686274509804,280.0 L 39.99686274509804,281.0 L 39.99686274509804,282.0 L 39.99686274509804,283.0 L 39.99686274509804,284.0 L 39.99686274509804,285.0 L 39.99686274509804,286.0 L 39.99686274509804,287.0 L 39.99686274509804,288.0 L 39.99686274509804,289.0 L 39.99686274509804,290.0 L 39.99686274509804,291.0 L 39.99686274509804,292.0 L 39.99686274509804,293.0 L 39.99686274509804,294.0 L 39.99686274509804,295.0 L 39.99686274509804,296.0 L 39.99686274509804,297.0 L 39.99686274509804,298.0 L 39.99686274509804,299.0 L 39.99686274509804,300.0 L 39.99686274509804,301.0 L 39.99686274509804,302.0 L 39.99686274509804,303.0 L 39.99686274509804,304.0 L 39.99686274509804,305.0 L 39.99686274509804,306.0 L 39.99686274509804,307.0 L 39.99686274509804,308.0 L 39.99686274509804,309.0 L 39.99686274509804,310.0 L 39.99686274509804,311.0 L 39.99686274509804,312.0 L 39.99686274509804,313.0 L 39.99686274509804,314.0 L 40.0,314.00313725490196 L 40.99686274509804,315.0 L 40.99686274509804,316.0 L 40.99686274509804,317.0 L 40.99686274509804,318.0 L 40.99686274509804,319.0 L 40.99686274509804,320.0 L 40.99686274509804,321.0 L 40.99686274509804,322.0 L 40.99686274509804,323.0 L 40.99686274509804,324.0 L 40.99686274509804,325.0 L 40.99686274509804,326.0 L 40.99686274509804,327.0 L 41.0,327.00313725490196 L 41.99686274509804,328.0 L 41.99686274509804,329.0 L 41.99686274509804,330.0 L 41.99686274509804,331.0 L 41.99686274509804,332.0 L 42.0,332.00313725490196 L 42.99686274509804,333.0 L 42.99686274509804,334.0 L 42.99686274509804,335.0 L 42.99686274509804,336.0 L 43.0,336.00313725490196 L 43.99686274509804,337.0 L 43.99686274509804,338.0 L 43.99686274509804,339.0 L 44.0,339.00313725490196 L 44.99686274509804,340.0 L 44.99686274509804,341.0 L 44.99686274509804,342.0 L 45.0,342.00313725490196 L 45.99686274509804,343.0 L 45.99686274509804,344.0 L 46.0,344.00313725490196 L 46.99686274509804,345.0 L 46.99686274509804,346.0 L 47.0,346.00313725490196 L 47.99686274509804,347.0 L 47.99686274509804,348.0 L 48.0,348.00313725490196 L 48.99686274509804,349.0 L 49.0,349.00313725490196 L 49.99686274509804,350.0 L 49.99686274509804,351.0 L 50.0,351.00313725490196 L 50.99686274509804,352.0 L 51.0,352.00313725490196 L 51.99686274509804,353.0 L 51.99686274509804,354.0 L 52.0,354.00313725490196 L 52.99686274509804,355.0 L 53.0,355.00313725490196 L 53.99686274509804,356.0 L 54.0,356.00313725490196 L 54.99686274509804,357.0 L 55.0,357.00313725490196 L 55.99686274509804,358.0 L 55.99686274509804,359.0 L 56.0,359.00313725490196 L 56.99686274509804,360.0 L 57.0,360.00313725490196 L 57.99686274509804,361.0 L 58.0,361.00313725490196 L 58.99686274509804,362.0 L 59.0,362.00313725490196 L 59.99686274509804,363.0 L 60.0,363.00313725490196 L 60.99686274509804,364.0 L 61.0,364.00313725490196 L 61.99686274509804,365.0 L 62.0,365.00313725490196 L 62.99686274509804,366.0 L 62.99686274509804,367.0 L 63.0,367.00313725490196 L 64.0,367.00313725490196 L 64.99686274509804,368.0 L 64.99686274509804,369.0 L 65.0,369.00313725490196 L 65.99686274509804,370.0 L 66.0,370.00313725490196 L 66.99686274509804,371.0 L 67.0,371.00313725490196 L 67.99686274509804,372.0 L 68.0,372.00313725490196 L 68.99686274509804,373.0 L 69.0,373.00313725490196 L 69.99686274509804,374.0 L 70.0,374.00313725490196 L 70.99686274509804,375.0 L 71.0,375.00313725490196 L 71.99686274509804,376.0 L 71.99686274509804,377.0 L 72.0,377.00313725490196 L 72.99686274509804,378.0 L 73.0,378.00313725490196 L 73.99686274509804,379.0 L 74.0,379.00313725490196 L 74.99686274509804,380.0 L 75.0,380.00313725490196 L 75.99686274509804,381.0 L 76.0,381.00313725490196 L 76.99686274509804,382.0 L 77.0,382.00313725490196 L 77.99686274509804,383.0 L 78.0,383.00313725490196 L 78.99686274509804,384.0 L 79.0,384.00313725490196 L 79.99686274509804,385.0 L 79.99686274509804,386.0 L 80.0,386.00313725490196 L 80.99686274509804,387.0 L 81.0,387.00313725490196 L 81.99686274509804,388.0 L 82.0,388.00313725490196 L 82.99686274509804,389.0 L 83.0,389.00313725490196 L 83.99686274509804,390.0 L 84.0,390.00313725490196 L 84.99686274509804,391.0 L 85.0,391.00313725490196 L 85.99686274509804,392.0 L 86.0,392.00313725490196 L 86.99686274509804,393.0 L 87.0,393.00313725490196 L 87.99686274509804,394.0 L 87.99686274509804,395.0 L 88.0,395.00313725490196 L 89.0,395.00313725490196 L 89.99686274509804,396.0 L 89.99686274509804,397.0 L 90.0,397.00313725490196 L 90.99686274509804,398.0 L 91.0,398.00313725490196 L 91.99686274509804,399.0 L 92.0,399.00313725490196 L 92.99686274509804,400.0 L 93.0,400.00313725490196 L 93.99686274509804,401.0 L 94.0,401.00313725490196 L 94.99686274509804,402.0 L 95.0,402.00313725490196 L 95.99686274509804,403.0 L 96.0,403.00313725490196 L 96.99686274509804,404.0 L 96.99686274509804,405.0 L 97.0,405.00313725490196 L 97.99686274509804,406.0 L 98.0,406.00313725490196 L 98.99686274509804,407.0 L 99.0,407.00313725490196 L 99.99686274509804,408.0 L 100.0,408.00313725490196 L 100.99686274509804,409.0 L 101.0,409.00313725490196 L 101.99686274509804,410.0 L 102.0,410.00313725490196 L 102.99686274509804,411.0 L 103.0,411.00313725490196 L 103.99686274509804,412.0 L 104.0,412.00313725490196 L 104.99686274509804,413.0 L 104.99686274509804,414.0 L 105.0,414.00313725490196 L 106.0,414.00313725490196 L 106.99686274509804,415.0 L 106.99686274509804,416.0 L 107.0,416.00313725490196 L 107.99686274509804,417.0 L 108.0,417.00313725490196 L 108.99686274509804,418.0 L 109.0,418.00313725490196 L 109.99686274509804,419.0 L 110.0,419.00313725490196 L 110.99686274509804,420.0 L 111.0,420.00313725490196 L 111.99686274509804,421.0 L 112.0,421.00313725490196 L 112.99686274509804,422.0 L 113.0,422.00313725490196 L 113.99686274509804,423.0 L 113.99686274509804,424.0 L 114.0,424.00313725490196 L 114.99686274509804,425.0 L 115.0,425.00313725490196 L 115.99686274509804,426.0 L 116.0,426.00313725490196 L 116.99686274509804,427.0 L 117.0,427.00313725490196 L 117.99686274509804,428.0 L 118.0,428.00313725490196 L 118.99686274509804,429.0 L 119.0,429.00313725490196 L 119.99686274509804,430.0 L 120.0,430.00313725490196 L 120.99686274509804,431.0 L 120.99686274509804,432.0 L 121.0,432.00313725490196 L 121.99686274509804,433.0 L 122.0,433.00313725490196 L 123.0,433.00313725490196 L 123.99686274509804,434.0 L 123.99686274509804,435.0 L 124.0,435.00313725490196 L 124.99686274509804,436.0 L 125.0,436.00313725490196 L 125.99686274509804,437.0 L 126.0,437.00313725490196 L 126.99686274509804,438.0 L 127.0,438.00313725490196 L 127.99686274509804,439.0 L 128.0,439.00313725490196 L 128.99686274509804,440.0 L 129.0,440.00313725490196 L 129.99686274509804,441.0 L 129.99686274509804,442.0 L 130.0,442.00313725490196 L 131.0,442.00313725490196 L 131.99686274509804,443.0 L 131.99686274509804,444.0 L 132.0,444.00313725490196 L 132.99686274509804,445.0 L 133.0,445.00313725490196 L 133.99686274509804,446.0 L 134.0,446.00313725490196 L 134.99686274509804,447.0 L 135.0,447.00313725490196 L 135.99686274509804,448.0 L 136.0,448.00313725490196 L 136.99686274509804,449.0 L 137.0,449.00313725490196 L 137.99686274509804,450.0 L 138.0,450.00313725490196 L 138.99686274509804,451.0 L 139.0,451.00313725490196 L 139.99686274509804,452.0 L 140.0,452.00313725490196 L 140.99686274509804,453.0 L 140.99686274509804,454.0 L 141.0,454.00313725490196 L 141.99686274509804,455.0 L 142.0,455.00313725490196 L 142.99686274509804,456.0 L 143.0,456.00313725490196 L 143.99686274509804,457.0 L 144.0,457.00313725490196 L 144.99686274509804,458.0 L 145.0,458.00313725490196 L 145.99686274509804,459.0 L 146.0,459.00313725490196 L 146.99686274509804,460.0 L 146.99686274509804,461.0 L 147.0,461.00313725490196 L 147.99686274509804,462.0 L 148.0,462.00313725490196 L 148.99686274509804,463.0 L 149.0,463.00313725490196 L 149.99686274509804,464.0 L 150.0,464.00313725490196 L 150.99686274509804,465.0 L 151.0,465.00313725490196 L 151.99686274509804,466.0 L 152.0,466.00313725490196 L 152.99686274509804,467.0 L 153.0,467.00313725490196 L 153.99686274509804,468.0 L 154.0,468.00313725490196 L 154.99686274509804,469.0 L 155.0,469.00313725490196 L 155.99686274509804,470.0 L 156.0,470.00313725490196 L 156.99686274509804,471.0 L 157.0,471.00313725490196 L 157.99686274509804,472.0 L 157.99686274509804,473.0 L 158.0,473.00313725490196 L 159.0,473.00313725490196 L 159.99686274509804,474.0 L 160.0,474.00313725490196 L 160.99686274509804,475.0 L 161.0,475.00313725490196 L 161.99686274509804,476.0 L 161.99686274509804,477.0 L 162.0,477.00313725490196 L 163.0,477.00313725490196 L 163.99686274509804,478.0 L 163.99686274509804,479.0 L 164.0,479.00313725490196 L 164.99686274509804,480.0 L 165.0,480.00313725490196 L 166.0,480.00313725490196 L 166.99686274509804,481.0 L 167.0,481.00313725490196 L 167.99686274509804,482.0 L 168.0,482.00313725490196 L 168.99686274509804,483.0 L 169.0,483.00313725490196 L 170.0,483.00313725490196 L 170.99686274509804,484.0 L 171.0,484.00313725490196 L 171.99686274509804,485.0 L 172.0,485.00313725490196 L 173.0,485.00313725490196 L 173.99686274509804,486.0 L 174.0,486.00313725490196 L 175.0,486.00313725490196 L 175.99686274509804,487.0 L 176.0,487.00313725490196 L 177.0,487.00313725490196 L 178.0,487.00313725490196 L 178.99686274509804,488.0 L 179.0,488.00313725490196 L 180.0,488.00313725490196 L 181.0,488.00313725490196 L 182.0,488.00313725490196 L 183.0,488.00313725490196 L 184.0,488.00313725490196 L 184.99686274509804,489.0 L 185.0,489.00313725490196 L 186.0,489.00313725490196 L 187.0,489.00313725490196 L 188.0,489.00313725490196 L 189.0,489.00313725490196 L 189.00313725490196,489.0 Z" fill="none" stroke="black" stroke-width="2" /><path d="M 121.00313725490196,43.0 L 121.0,42.99686274509804 L 120.99686274509804,43.0 L 121.0,43.00313725490196 L 121.00313725490196,43.0 Z" fill="none" stroke="black" stroke-width="2" /><path d="M 33.00313725490196,45.0 L 33.0,44.99686274509804 L 32.99686274509804,45.0 L 33.0,45.00313725490196 L 33.00313725490196,45.0 Z" fill="none" stroke="black" stroke-width="2" /><path d="M 15.003137254901961,56.0 L 15.0,55.99686274509804 L 14.996862745098039,56.0 L 15.0,56.00313725490196 L 15.003137254901961,56.0 Z" fill="none" stroke="black" stroke-width="2" /><path d="M 352.00313725490196,58.0 L 352.0,57.99686274509804 L 351.99686274509804,58.0 L 352.0,58.00313725490196 L 352.00313725490196,58.0 Z" fill="none" stroke="black" stroke-width="2" /><path d="M 14.003137254901961,60.0 L 14.0,59.99686274509804 L 13.996862745098039,60.0 L 14.0,60.00313725490196 L 14.003137254901961,60.0 Z" fill="none" stroke="black" stroke-width="2" /><path d="M 12.003137254901961,75.0 L 12.003137254901961,74.0 L 12.0,73.99686274509804 L 11.996862745098039,74.0 L 11.996862745098039,75.0 L 12.0,75.00313725490196 L 12.003137254901961,75.0 Z" fill="none" stroke="black" stroke-width="2" /><path d="M 155.00313725490196,76.0 L 155.0,75.99686274509804 L 154.99686274509804,76.0 L 155.0,76.00313725490196 L 155.00313725490196,76.0 Z" fill="none" stroke="black" stroke-width="2" /><path d="M 162.00313725490196,83.0 L 162.0,82.99686274509804 L 161.00313725490196,82.0 L 161.0,81.99686274509804 L 160.00313725490196,81.0 L 160.0,80.99686274509804 L 159.00313725490196,80.0 L 159.0,79.99686274509804 L 158.99686274509804,80.0 L 159.0,80.00313725490196 L 159.99686274509804,81.0 L 160.0,81.00313725490196 L 160.99686274509804,82.0 L 161.0,82.00313725490196 L 161.99686274509804,83.0 L 162.0,83.00313725490196 L 162.00313725490196,83.0 Z" fill="none" stroke="black" stroke-width="2" /><path d="M 217.00313725490196,83.0 L 218.0,82.00313725490196 L 218.00313725490196,82.0 L 218.0,81.99686274509804 L 217.99686274509804,82.0 L 217.0,82.99686274509804 L 216.99686274509804,83.0 L 217.0,83.00313725490196 L 217.00313725490196,83.0 Z" fill="none" stroke="black" stroke-width="2" /><path d="M 167.00313725490196,88.0 L 167.0,87.99686274509804 L 166.00313725490196,87.0 L 166.0,86.99686274509804 L 165.00313725490196,86.0 L 165.0,85.99686274509804 L 164.00313725490196,85.0 L 164.0,84.99686274509804 L 163.99686274509804,85.0 L 164.0,85.00313725490196 L 164.99686274509804,86.0 L 165.0,86.00313725490196 L 165.99686274509804,87.0 L 166.0,87.00313725490196 L 166.99686274509804,88.0 L 167.0,88.00313725490196 L 167.00313725490196,88.0 Z" fill="none" stroke="black" stroke-width="2" /><path d="M 212.00313725490196,88.0 L 212.0,87.99686274509804 L 211.99686274509804,88.0 L 212.0,88.00313725490196 L 212.00313725490196,88.0 Z" fill="none" stroke="black" stroke-width="2" /><path d="M 172.00313725490196,93.0 L 172.0,92.99686274509804 L 171.00313725490196,92.0 L 171.0,91.99686274509804 L 170.00313725490196,91.0 L 170.0,90.99686274509804 L 169.99686274509804,91.0 L 170.0,91.00313725490196 L 170.99686274509804,92.0 L 171.0,92.00313725490196 L 171.99686274509804,93.0 L 172.0,93.00313725490196 L 172.00313725490196,93.0 Z" fill="none" stroke="black" stroke-width="2" /><path d="M 175.00313725490196,96.0 L 175.0,95.99686274509804 L 174.99686274509804,96.0 L 175.0,96.00313725490196 L 175.00313725490196,96.0 Z" fill="none" stroke="black" stroke-width="2" /><path d="M 177.00313725490196,98.0 L 177.0,97.99686274509804 L 176.99686274509804,98.0 L 177.0,98.00313725490196 L 177.00313725490196,98.0 Z" fill="none" stroke="black" stroke-width="2" /><path d="M 12.003137254901961,318.0 L 12.0,317.99686274509804 L 11.996862745098039,318.0 L 12.0,318.00313725490196 L 12.003137254901961,318.0 Z" fill="none" stroke="black" stroke-width="2" /><path d="M 367.00313725490196,318.0 L 367.0,317.99686274509804 L 366.99686274509804,318.0 L 367.0,318.00313725490196 L 367.00313725490196,318.0 Z" fill="none" stroke="black" stroke-width="2" /><path d="M 14.003137254901961,336.0 L 14.0,335.99686274509804 L 13.996862745098039,336.0 L 14.0,336.00313725490196 L 14.003137254901961,336.0 Z" fill="none" stroke="black" stroke-width="2" /><path d="M 16.00313725490196,344.0 L 16.0,343.99686274509804 L 15.996862745098039,344.0 L 16.0,344.00313725490196 L 16.00313725490196,344.0 Z" fill="none" stroke="black" stroke-width="2" /><path d="M 17.00313725490196,347.0 L 17.0,346.99686274509804 L 16.99686274509804,347.0 L 17.0,347.00313725490196 L 17.00313725490196,347.0 Z" fill="none" stroke="black" stroke-width="2" /><path d="M 362.00313725490196,347.0 L 362.0,346.99686274509804 L 361.99686274509804,347.0 L 362.0,347.00313725490196 L 362.00313725490196,347.0 Z" fill="none" stroke="black" stroke-width="2" /><path d="M 32.00313725490196,352.0 L 32.0,351.99686274509804 L 31.99686274509804,352.0 L 32.0,352.00313725490196 L 32.00313725490196,352.0 Z" fill="none" stroke="black" stroke-width="2" /><path d="M 347.00313725490196,352.0 L 347.0,351.99686274509804 L 346.99686274509804,352.0 L 347.0,352.00313725490196 L 347.00313725490196,352.0 Z" fill="none" stroke="black" stroke-width="2" /><path d="M 21.00313725490196,357.0 L 21.0,356.99686274509804 L 20.99686274509804,357.0 L 21.0,357.00313725490196 L 21.00313725490196,357.0 Z" fill="none" stroke="black" stroke-width="2" /><path d="M 36.00313725490196,359.0 L 36.0,358.99686274509804 L 35.99686274509804,359.0 L 36.0,359.00313725490196 L 36.00313725490196,359.0 Z" fill="none" stroke="black" stroke-width="2" /><path d="M 23.00313725490196,361.0 L 23.0,360.99686274509804 L 22.99686274509804,361.0 L 23.0,361.00313725490196 L 23.00313725490196,361.0 Z" fill="none" stroke="black" stroke-width="2" /><path d="M 54.00313725490196,381.0 L 54.0,380.99686274509804 L 53.99686274509804,381.0 L 54.0,381.00313725490196 L 54.00313725490196,381.0 Z" fill="none" stroke="black" stroke-width="2" /><path d="M 316.00313725490196,391.0 L 316.0,390.99686274509804 L 315.99686274509804,391.0 L 316.0,391.00313725490196 L 316.00313725490196,391.0 Z" fill="none" stroke="black" stroke-width="2" /><path d="M 71.00313725490196,400.0 L 71.0,399.99686274509804 L 70.99686274509804,400.0 L 71.0,400.00313725490196 L 71.00313725490196,400.0 Z" fill="none" stroke="black" stroke-width="2" /><path d="M 71.00313725490196,418.0 L 71.0,417.99686274509804 L 70.99686274509804,418.0 L 71.0,418.00313725490196 L 71.00313725490196,418.0 Z" fill="none" stroke="black" stroke-width="2" /><path d="M 96.00313725490196,428.0 L 96.0,427.99686274509804 L 95.99686274509804,428.0 L 96.0,428.00313725490196 L 96.00313725490196,428.0 Z" fill="none" stroke="black" stroke-width="2" /><path d="M 299.00313725490196,428.0 L 299.0,427.99686274509804 L 298.99686274509804,428.0 L 299.0,428.00313725490196 L 299.00313725490196,428.0 Z" fill="none" stroke="black" stroke-width="2" /><path d="M 112.00313725490196,446.0 L 112.0,445.99686274509804 L 111.99686274509804,446.0 L 112.0,446.00313725490196 L 112.00313725490196,446.0 Z" fill="none" stroke="black" stroke-width="2" /><path d="M 130.00313725490196,466.0 L 130.0,465.99686274509804 L 129.99686274509804,466.0 L 130.0,466.00313725490196 L 130.00313725490196,466.0 Z" fill="none" stroke="black" stroke-width="2" /><path d="M 177.00313725490196,504.0 L 177.0,503.99686274509804 L 176.99686274509804,504.0 L 177.0,504.00313725490196 L 177.00313725490196,504.0 Z" fill="none" stroke="black" stroke-width="2" /><path d="M 163.00313725490196,512.0 L 163.0,511.99686274509804 L 162.99686274509804,512.0 L 163.0,512.003137254902 L 163.00313725490196,512.0 Z" fill="none" stroke="black" stroke-width="2" /><path d="M 182.00313725490196,517.0 L 182.0,516.996862745098 L 181.99686274509804,517.0 L 182.0,517.003137254902 L 182.00313725490196,517.0 Z" fill="none" stroke="black" stroke-width="2" /><path d="M 196.00313725490196,517.0 L 196.0,516.996862745098 L 195.99686274509804,517.0 L 196.0,517.003137254902 L 196.00313725490196,517.0 Z" fill="none" stroke="black" stroke-width="2" /></svg>